<svg version="1.2" baseProfile="tiny-ps" xmlns="http://www.w3.org/2000/svg" viewBox="0 0 1080 1080" width="120" height="120">
	<title>8fbc5e30-a6aa-11eb-a325-7b127bd9dee6-14485-ai</title>
	<style>
		tspan { white-space:pre }
		.shp0 { fill: #faa931 } 
		.shp1 { fill: #929497 } 
		.shp2 { fill: #d41f26 } 
		.shp3 { fill: #58595b } 
	</style>
	<g id="Layer 1">
		<g id="&lt;Group&gt;">
			<g id="&lt;Group&gt;">
				<path id="&lt;Path&gt;" class="shp0" d="M504.71 439.74L606.84 439.74L606.84 502.32L668.99 502.32L668.99 630.53L504.71 630.53L504.71 439.74Z" />
				<path id="&lt;Path&gt;" class="shp0" d="M615.53 445.5L662.47 492.44L615.53 492.44L615.53 445.5Z" />
			</g>
			<g id="&lt;Group&gt;">
				<path id="&lt;Path&gt;" class="shp1" d="M425.57 396.9L527.71 396.9L527.71 459.49L589.86 459.49L589.86 587.7L425.57 587.7L425.57 396.9Z" />
				<path id="&lt;Path&gt;" class="shp1" d="M536.4 402.66L583.34 449.6L536.4 449.6L536.4 402.66Z" />
			</g>
			<g id="&lt;Group&gt;">
				<path id="&lt;Path&gt;" class="shp2" d="M468.24 492.3L570.38 492.3L570.38 554.89L632.53 554.89L632.53 683.1L468.24 683.1L468.24 492.3Z" />
				<path id="&lt;Path&gt;" class="shp2" d="M579.07 498.06L626.01 545L579.07 545L579.07 498.06Z" />
			</g>
		</g>
		<g id="&lt;Group&gt;">
		</g>
		<g id="&lt;Group&gt;">
			<g id="&lt;Group&gt;">
				<g id="&lt;Group&gt;">
					<path id="&lt;Path&gt;" class="shp0" d="M663.96 419.23C665.89 422.53 669.28 424.71 673.08 425.1L758.31 433.74C767.98 434.72 774.72 424.36 769.91 415.92L722.1 331.95C720.48 329.11 720.13 325.77 721.02 322.71L584.45 283.13L663.96 419.23Z" />
					<path id="&lt;Path&gt;" class="shp3" d="M813.83 128.61L515.02 128.61C505.85 128.61 500.13 138.48 504.59 146.42L777.71 225.58L824.14 146.64C828.83 138.67 823.08 128.61 813.83 128.61Z" />
				</g>
				<path id="&lt;Path&gt;" class="shp2" d="M504.69 146.61L584.45 283.13L721.02 322.71C721.29 321.76 721.67 320.84 722.19 319.97L777.71 225.58L504.59 146.42C504.62 146.48 504.65 146.55 504.69 146.61Z" />
			</g>
			<g id="&lt;Group&gt;">
				<g id="&lt;Group&gt;">
					<path id="&lt;Path&gt;" class="shp0" d="M706.31 583.79C704.42 587.11 704.23 591.14 705.81 594.62L741.08 672.68C745.08 681.54 757.42 682.18 762.32 673.78L810.98 590.31C812.62 587.48 815.33 585.5 818.43 584.73L784.17 446.73L706.31 583.79Z" />
					<path id="&lt;Path&gt;" class="shp3" d="M1032.9 567.68L883.02 309.17C878.42 301.24 867.01 301.23 862.38 309.07L930.89 585.06L1022.47 585.64C1031.72 585.69 1037.54 575.68 1032.9 567.68Z" />
				</g>
				<path id="&lt;Path&gt;" class="shp2" d="M862.27 309.26L784.17 446.73L818.43 584.73C819.38 584.49 820.37 584.36 821.39 584.37L930.89 585.06L862.38 309.07C862.34 309.14 862.3 309.19 862.27 309.26Z" />
			</g>
			<g id="&lt;Group&gt;">
				<g id="&lt;Group&gt;">
					<path id="&lt;Path&gt;" class="shp0" d="M585.75 705.39C581.93 705.4 578.34 707.23 576.09 710.33L525.82 779.69C520.12 787.56 525.69 798.59 535.41 798.67L632.03 799.49C635.3 799.52 638.36 800.89 640.56 803.2L743.38 704.97L585.75 705.39Z" />
					<path id="&lt;Path&gt;" class="shp3" d="M761.8 980.93L911.86 722.53C916.46 714.6 910.81 704.7 901.7 704.57L696.09 901L741.03 980.8C745.57 988.86 757.15 988.93 761.8 980.93Z" />
				</g>
				<path id="&lt;Path&gt;" class="shp2" d="M901.48 704.56L743.38 704.97L640.56 803.2C641.24 803.91 641.85 804.7 642.35 805.58L696.09 901L901.7 704.57C901.63 704.56 901.56 704.56 901.48 704.56Z" />
			</g>
			<g id="&lt;Group&gt;">
				<g id="&lt;Group&gt;">
					<path id="&lt;Path&gt;" class="shp0" d="M418.83 662.73C416.89 659.44 413.49 657.27 409.69 656.9L324.43 648.54C314.76 647.59 308.05 657.96 312.89 666.39L360.97 750.2C362.6 753.04 362.97 756.37 362.09 759.44L498.79 798.57L418.83 662.73Z" />
					<path id="&lt;Path&gt;" class="shp3" d="M269.91 953.84L568.72 952.86C577.89 952.83 583.58 942.94 579.1 935.02L305.72 856.76L259.54 935.85C254.88 943.84 260.66 953.87 269.91 953.84Z" />
				</g>
				<path id="&lt;Path&gt;" class="shp2" d="M578.99 934.83L498.79 798.57L362.09 759.44C361.82 760.39 361.44 761.31 360.93 762.19L305.72 856.76L579.1 935.02C579.06 934.95 579.03 934.89 578.99 934.83Z" />
			</g>
			<g id="&lt;Group&gt;">
				<g id="&lt;Group&gt;">
					<path id="&lt;Path&gt;" class="shp0" d="M373.71 497.58C375.6 494.26 375.79 490.23 374.23 486.74L339.08 408.62C335.09 399.76 322.76 399.1 317.85 407.49L269.05 490.88C267.4 493.71 264.69 495.68 261.59 496.45L295.62 634.5L373.71 497.58Z" />
					<path id="&lt;Path&gt;" class="shp3" d="M47.09 513.15L196.54 771.9C201.13 779.84 212.53 779.86 217.18 772.03L149.13 495.93L57.55 495.2C48.3 495.13 42.47 505.13 47.09 513.15Z" />
				</g>
				<path id="&lt;Path&gt;" class="shp2" d="M217.29 771.85L295.62 634.5L261.59 496.45C260.63 496.68 259.64 496.81 258.63 496.8L149.13 495.93L217.18 772.03C217.22 771.97 217.26 771.91 217.29 771.85Z" />
			</g>
			<g id="&lt;Group&gt;">
				<g id="&lt;Group&gt;">
					<path id="&lt;Path&gt;" class="shp0" d="M494.62 376.01C498.44 376.04 502.05 374.23 504.32 371.15L555.18 302.22C560.95 294.4 555.47 283.33 545.75 283.16L449.14 281.52C445.87 281.46 442.82 280.06 440.64 277.74L337 375.09L494.62 376.01Z" />
					<path id="&lt;Path&gt;" class="shp3" d="M320.92 98.98L168.67 356.1C164 363.98 169.57 373.94 178.67 374.15L385.95 179.47L341.68 99.29C337.21 91.19 325.63 91.02 320.92 98.98Z" />
				</g>
				<path id="&lt;Path&gt;" class="shp2" d="M178.89 374.15L337 375.09L440.64 277.74C439.96 277.02 439.36 276.22 438.88 275.34L385.95 179.47L178.67 374.15C178.75 374.15 178.82 374.15 178.89 374.15Z" />
			</g>
		</g>
	</g>
</svg>